<svg xmlns="http://www.w3.org/2000/svg" width="35" height="62" viewBox="0 0 35 62">
  <metadata><?xpacket begin="﻿" id="W5M0MpCehiHzreSzNTczkc9d"?>
<x:xmpmeta xmlns:x="adobe:ns:meta/" x:xmptk="Adobe XMP Core 5.6-c142 79.160924, 2017/07/13-01:06:39        ">
   <rdf:RDF xmlns:rdf="http://www.w3.org/1999/02/22-rdf-syntax-ns#">
      <rdf:Description rdf:about=""/>
   </rdf:RDF>
</x:xmpmeta>
                                                                                                    
                                                                                                    
                                                                                                    
                                                                                                    
                                                                                                    
                                                                                                    
                                                                                                    
                                                                                                    
                                                                                                    
                                                                                                    
                                                                                                    
                                                                                                    
                                                                                                    
                                                                                                    
                                                                                                    
                                                                                                    
                                                                                                    
                                                                                                    
                                                                                                    
                                                                                                    
                           
<?xpacket end="w"?></metadata>
<defs>
    <style>
      .cls-1 {
        fill: #7d8f9b;
        fill-rule: evenodd;
      }
    </style>
  </defs>
  <path id="Icon" class="cls-1" d="M277.111,858H249.889A3.882,3.882,0,0,1,246,854.124V799.875A3.882,3.882,0,0,1,249.889,796h27.222A3.882,3.882,0,0,1,281,799.875v54.249A3.882,3.882,0,0,1,277.111,858ZM263.5,854.124a1.938,1.938,0,1,0-1.944-1.937A1.94,1.94,0,0,0,263.5,854.124Zm3.889-54.249h-7.778a1.937,1.937,0,1,0,0,3.874h7.778A1.937,1.937,0,1,0,267.389,799.875Zm9.722,7.749H249.889v38.75h27.222v-38.75Z" transform="translate(-246 -796)"/>
</svg>
