<svg xmlns="http://www.w3.org/2000/svg" width="65.063" height="58.563" viewBox="0 0 65.063 58.563">
  <metadata><?xpacket begin="﻿" id="W5M0MpCehiHzreSzNTczkc9d"?>
<x:xmpmeta xmlns:x="adobe:ns:meta/" x:xmptk="Adobe XMP Core 5.6-c142 79.160924, 2017/07/13-01:06:39        ">
   <rdf:RDF xmlns:rdf="http://www.w3.org/1999/02/22-rdf-syntax-ns#">
      <rdf:Description rdf:about=""/>
   </rdf:RDF>
</x:xmpmeta>
                                                                                                    
                                                                                                    
                                                                                                    
                                                                                                    
                                                                                                    
                                                                                                    
                                                                                                    
                                                                                                    
                                                                                                    
                                                                                                    
                                                                                                    
                                                                                                    
                                                                                                    
                                                                                                    
                                                                                                    
                                                                                                    
                                                                                                    
                                                                                                    
                                                                                                    
                                                                                                    
                           
<?xpacket end="w"?></metadata>
<defs>
    <style>
      .cls-1 {
        fill: #788a95;
        fill-rule: evenodd;
      }
    </style>
  </defs>
  <path id="Icon" class="cls-1" d="M946.107,840.8l-5.543,9.6-5.623-3.246c-0.437.366-.888,0.713-1.355,1.033l1.682,6.277-10.708,2.869-1.689-6.3c-0.535-.045-1.069-0.121-1.6-0.215l-3.246,5.622-9.6-5.543,3.265-5.654c-0.344-.414-0.674-0.839-0.977-1.28l-6.277,1.682-2.869-10.709,6.3-1.688c0.045-.535.121-1.069,0.215-1.6l-5.622-3.246L908,818.8l5.653,3.264c0.392-.325.791-0.641,1.206-0.929l-1.689-6.3,10.709-2.869,1.681,6.277c0.534,0.042,1.067.115,1.6,0.206l3.265-5.655,9.6,5.543-3.246,5.623c0.348,0.414.68,0.838,0.986,1.279l6.3-1.689,2.869,10.708-6.277,1.682c-0.041.534-.115,1.067-0.205,1.6Zm-16.5-15.774a10.914,10.914,0,1,0,4,14.909A10.913,10.913,0,0,0,929.612,825.025Zm-8.138,14.353a5.543,5.543,0,1,1,7.572-2.028A5.542,5.542,0,0,1,921.474,839.378Zm40.207-37.513,3.987,5.423-3.176,2.335c0.1,0.333.18,0.668,0.245,1.006l3.9,0.594-1.015,6.654-3.916-.6c-0.155.287-.327,0.565-0.509,0.838l2.335,3.176-5.423,3.987-2.348-3.194c-0.315.091-.631,0.171-0.95,0.231l-0.6,3.9-6.654-1.015,0.6-3.916c-0.286-.155-0.565-0.327-0.838-0.509l-3.175,2.335-3.988-5.423,3.193-2.348c-0.085-.3-0.164-0.595-0.223-0.9l-3.915-.6,1.015-6.654,3.9,0.595c0.153-.286.324-0.565,0.5-0.838l-2.349-3.194,5.423-3.987,2.335,3.176c0.315-.093.632-0.174,0.952-0.237l0.6-3.915,6.654,1.014-0.6,3.9c0.287,0.153.565,0.324,0.838,0.5Zm-12.793,5.327a6.626,6.626,0,1,0,9.264,1.413A6.627,6.627,0,0,0,948.888,807.192Zm6,8.024a3.365,3.365,0,1,1,.717-4.705A3.366,3.366,0,0,1,954.886,815.216Z" transform="translate(-901.562 -798.781)"/>
</svg>
