<svg xmlns="http://www.w3.org/2000/svg" width="42" height="60" viewBox="0 0 42 60">
  <metadata><?xpacket begin="﻿" id="W5M0MpCehiHzreSzNTczkc9d"?>
<x:xmpmeta xmlns:x="adobe:ns:meta/" x:xmptk="Adobe XMP Core 5.6-c142 79.160924, 2017/07/13-01:06:39        ">
   <rdf:RDF xmlns:rdf="http://www.w3.org/1999/02/22-rdf-syntax-ns#">
      <rdf:Description rdf:about=""/>
   </rdf:RDF>
</x:xmpmeta>
                                                                                                    
                                                                                                    
                                                                                                    
                                                                                                    
                                                                                                    
                                                                                                    
                                                                                                    
                                                                                                    
                                                                                                    
                                                                                                    
                                                                                                    
                                                                                                    
                                                                                                    
                                                                                                    
                                                                                                    
                                                                                                    
                                                                                                    
                                                                                                    
                                                                                                    
                                                                                                    
                           
<?xpacket end="w"?></metadata>
<defs>
    <style>
      .cls-1 {
        fill: #7d8f9b;
        fill-rule: evenodd;
      }
    </style>
  </defs>
  <path id="Icon" class="cls-1" d="M607,814.646v21.177l14,14.118A7.029,7.029,0,0,1,614,857H586a7.029,7.029,0,0,1-7-7.058l14-14.118V814.646c-2.233,0-9.233-7.058-7-7.058h28C616.233,807.588,609.233,814.646,607,814.646Zm1.75-10.588a1.765,1.765,0,1,1,1.75-1.765A1.757,1.757,0,0,1,608.75,804.058Zm-7-3.529a1.765,1.765,0,1,1,1.75-1.765A1.757,1.757,0,0,1,601.75,800.529ZM593,804.058a3.53,3.53,0,1,1,3.5-3.529A3.515,3.515,0,0,1,593,804.058Z" transform="translate(-579 -797)"/>
</svg>
