<svg 
 xmlns="http://www.w3.org/2000/svg"
 xmlns:xlink="http://www.w3.org/1999/xlink"
 width="0.361in" height="0.292in">
<path fill-rule="evenodd"  fill="rgb(0, 172, 237)"
 d="M12.805,6.490 C12.805,6.490 5.111,5.965 1.704,0.860 C1.704,0.860 -0.645,5.090 3.231,8.007 C3.231,8.007 2.380,8.211 0.999,7.365 C0.999,7.365 0.853,11.683 5.140,12.646 C5.140,12.646 4.553,13.025 2.879,12.791 C2.879,12.791 3.408,16.030 7.725,16.438 C7.725,16.438 4.670,19.239 0.001,18.655 C0.001,18.655 8.870,24.762 18.268,17.274 C18.268,17.274 23.310,13.433 23.310,5.313 C23.310,5.313 25.953,2.834 26.002,2.591 C26.051,2.348 23.897,3.369 23.065,3.320 C23.065,3.320 25.121,1.715 25.267,0.403 C25.267,0.403 22.233,1.861 21.841,1.570 C21.841,1.570 19.687,-0.959 15.772,0.403 C15.772,0.403 12.071,1.822 12.805,6.490 Z"/>
</svg>